DBRep_DrawableShape

CASCADE Topology V1, (c) Matra-Datavision
Locations 3
1
 0 0 1 0
 1 0 0 0
 0 1 0 0
1
 0 0 1 0
 1 0 0 0
 0 1 0 0
2 1 1 2 1 0
Curve2ds 18
7 0 0  2 3 2  0 1  0.0 0.5  0 0  0.0 3  1.0 3 
7 0 0  2 3 2  0 0  0.5 0.0  1 0  0.0 3  1.0 3 
7 0 0  2 3 2  0 0  0.5 0.0  1 0  0.0 3  1.0 3 
7 0 0  2 3 2  0 0  0.5 0.0  1 0  0.0 3  1.0 3 
7 0 0  2 3 2  1 0  0.5 0.5  0 1  0.0 3  1.0 3 
7 0 0  2 3 2  0 0  0.5 0.0  1 0  0.0 3  1.0 3 
7 0 0  2 3 2  0 1  0.0 0.5  0 0  0.0 3  1.0 3 
7 0 0  2 3 2  0 1  0.5 1.0  1 1  0.0 3  1.0 3 
7 0 0  2 3 2  0 0  0.5 0.0  1 0  0.0 3  1.0 3 
7 0 0  2 3 2  0 1  0.5 1.0  1 1  0.0 3  1.0 3 
7 0 0  2 3 2  1 0  0.5 0.5  0 1  0.0 3  1.0 3 
7 0 0  2 3 2  0 1  0.5 1.0  1 1  0.0 3  1.0 3 
7 0 0  2 3 2  0 0  0.0 0.5  0 1  0.0 3  1.0 3 
7 0 0  2 3 2  1 0  1.0 0.5  1 1  0.0 3  1.0 3 
7 0 0  2 3 2  1 0  1.0 0.5  1 1  0.0 3  1.0 3 
7 0 0  2 3 2  0 0  0.0 0.5  0 1  0.0 3  1.0 3 
7 0 0  2 3 2  1 0  1.0 0.5  1 1  0.0 3  1.0 3 
7 0 0  2 3 2  0 0  0.0 0.5  0 1  0.0 3  1.0 3 
Curves 0
Polygon3D 0
PolygonOnTriangulations 0
Surfaces 5
9 0 0 0 0  2 2 3 3  2 2  0.0 1.0 1.0  0.0 0.5 1.0  0.0 0.0 1.0   0.5 0.5 1.0  0.5 0.0 1.0  0.5 -0.5 1.0   1.0 0.0 1.0  1.0 -0.5 1.0  1.0 -1.0 1.0   0.0 3  1.0 3  0.0 3  1.0 3 
9 0 0 0 0  2 2 3 3  2 2  0.0 0.0 1.0  0.0 0.0 0.5  0.0 0.0 0.0   0.0 0.5 1.0  0.0 0.5 0.5  0.0 0.5 0.0   0.0 1.0 1.0  0.0 1.0 0.5  0.0 1.0 0.0   0.0 3  1.0 3  0.0 3  1.0 3 
9 0 0 0 0  2 2 3 3  2 2  0.0 1.0 1.0  0.0 1.0 0.5  0.0 1.0 0.0   0.5 0.5 1.0  0.5 0.5 0.5  0.5 0.5 0.0   1.0 0.0 1.0  1.0 0.0 0.5  1.0 0.0 0.0   0.0 3  1.0 3  0.0 3  1.0 3 
9 0 0 0 0  2 2 3 3  2 2  1.0 0.0 1.0  1.0 0.0 0.5  1.0 0.0 0.0   0.5 0.0 1.0  0.5 0.0 0.5  0.5 0.0 0.0   0.0 0.0 1.0  0.0 0.0 0.5  0.0 0.0 0.0   0.0 3  1.0 3  0.0 3  1.0 3 
9 0 0 0 0  2 2 3 3  2 2  0.0 1.0 0.0  0.0 0.5 0.0  0.0 0.0 0.0   0.5 0.5 0.0  0.5 0.0 0.0  0.5 -0.5 0.0   1.0 0.0 0.0  1.0 -0.5 0.0  1.0 -1.0 0.0   0.0 3  1.0 3  0.0 3  1.0 3 
Triangulations 0

TShapes 28
Ve
0.001
0.0 0.0 1.0 

0 0

0101000
*
Ve
0.001
0.0 1.0 1.0 

0 0

0101000
*
Ed
 0.001 1 1 0
2 1 1 0 0.0 1.0
2 2 2 0 0.0 1.0
0
0101000
+28 0 -27 0 *
Ve
0.001
1.0 0.0 1.0 

0 0

0101000
*
Ed
 0.001 1 1 0
2 3 1 0 0.0 1.0
2 4 3 0 0.0 1.0
0
0101000
+27 0 -25 0 *
Ed
 0.001 1 1 0
2 5 1 0 0.0 1.0
2 6 4 0 0.0 1.0
0
0101000
+25 0 -28 0 *
Wi

0101100
+26 0 +24 0 +23 0 *
Fa
0 0.001 1 0

0101000
+22 0 *
Ve
0.001
0.0 0.0 0.0 

0 0

0101000
*
Ve
0.001
0.0 1.0 0.0 

0 0

0101000
*
Ed
 0.001 1 1 0
2 7 5 0 0.0 1.0
2 8 2 0 0.0 1.0
0
0101000
+20 0 -19 0 *
Ve
0.001
1.0 0.0 0.0 

0 0

0101000
*
Ed
 0.001 1 1 0
2 9 5 0 0.0 1.0
2 10 3 0 0.0 1.0
0
0101000
+19 0 -17 0 *
Ed
 0.001 1 1 0
2 11 5 0 0.0 1.0
2 12 4 0 0.0 1.0
0
0101000
+17 0 -20 0 *
Wi

0101100
+18 0 +16 0 +15 0 *
Fa
0 0.001 5 0

0101000
-14 0 *
Ed
 0.001 1 1 0
2 13 2 0 0.0 1.0
2 14 4 0 0.0 1.0
0
0101000
+28 0 -20 0 *
Ed
 0.001 1 1 0
2 15 2 0 0.0 1.0
2 16 3 0 0.0 1.0
0
0101000
+27 0 -19 0 *
Wi

0101100
-12 0 +26 0 +11 0 -18 0 *
Fa
0 0.001 2 0

0101000
+10 0 *
Ed
 0.001 1 1 0
2 17 3 0 0.0 1.0
2 18 4 0 0.0 1.0
0
0101000
+25 0 -17 0 *
Wi

0101100
-11 0 +24 0 +8 0 -16 0 *
Fa
0 0.001 3 0

0101000
+7 0 *
Wi

0101100
-8 0 +23 0 +12 0 -15 0 *
Fa
0 0.001 4 0

0101000
+5 0 *
Sh

0101000
+21 0 -13 0 +9 0 +6 0 +4 0 *
So

0100000
+3 0 *
Co

1100000
+2 0 *

+1 3