DBRep_DrawableShape

CASCADE Topology V1, (c) Matra-Datavision
Locations 0
Curve2ds 12
7 0 0  2 3 2  0 1  0.0 0.5  0 0  0.0 3  1.0 3 
7 0 0  2 3 2  0 0  0.5 0.0  1 0  0.0 3  1.0 3 
7 0 0  2 3 2  0 1  0.5 0.5  1 0  0.0 3  1.0 3 
7 0 0  2 3 2  0 1  0.0 0.5  0 0  0.0 3  1.0 3 
7 0 0  2 3 2  0 0  0.5 0.0  1 0  0.0 3  1.0 3 
7 0 0  2 3 2  0 1  0.5 0.5  1 0  0.0 3  1.0 3 
7 0 0  2 3 2  0 1  0.0 0.5  0 0  0.0 3  1.0 3 
7 0 0  2 3 2  1 0  0.5 0.0  0 0  0.0 3  1.0 3 
7 0 0  2 3 2  0 1  0.5 0.5  1 0  0.0 3  1.0 3 
7 0 0  2 3 2  0 1  0.0 0.5  0 0  0.0 3  1.0 3 
7 0 0  2 3 2  0 0  0.5 0.0  1 0  0.0 3  1.0 3 
7 0 0  2 3 2  0 1  0.5 0.5  1 0  0.0 3  1.0 3 
Curves 6
7 0 0  2 3 2  0 0 0  0.5 0.0 0.0  1 0 0  0.0 3  1.0 3 
7 0 0  2 3 2  1 0 0  0.5 0.5 0.0  0 1 0  0.0 3  1.0 3 
7 0 0  2 3 2  0 0 0  0.0 0.5 0.0  0 1 0  0.0 3  1.0 3 
7 0 0  2 3 2  0 1 0  0.0 0.5 0.5  0 0 1  0.0 3  1.0 3 
7 0 0  2 3 2  0 0 0  0.0 0.0 0.5  0 0 1  0.0 3  1.0 3 
7 0 0  2 3 2  1 0 0  0.5 0.0 0.5  0 0 1  0.0 3  1.0 3 
Polygon3D 0
PolygonOnTriangulations 0
Surfaces 4
9 0 0 0 0  2 2 3 3  2 2  1 0 0  0.5 0.0 0.0  0 0 0   0.5 0.5 0.0  0.0 0.5 0.0  -0.5 0.5 0.0   0 1 0  -0.5 1.0 0.0  -1 1 0   0.0 3  1.0 3  0.0 3  1.0 3 
9 0 0 0 0  2 2 3 3  2 2  0 1 0  0.0 0.5 0.0  0 0 0   0.0 0.5 0.5  0.0 0.0 0.5  0.0 -0.5 0.5   0 0 1  0.0 -0.5 1.0  0 -1 1   0.0 3  1.0 3  0.0 3  1.0 3 
9 0 0 0 0  2 2 3 3  2 2  0 0 1  0.0 0.0 0.5  0 0 0   0.5 0.0 0.5  0.5 0.0 0.0  0.5 0.0 -0.5   1 0 0  1.0 0.0 -0.5  1 0 -1   0.0 3  1.0 3  0.0 3  1.0 3 
9 0 0 0 0  2 2 3 3  2 2  0 1 0  0.5 0.5 0.0  1 0 0   0.0 0.5 0.5  0.5 0.0 0.5  1.0 -0.5 0.5   0 0 1  0.5 -0.5 1.0  1 -1 1   0.0 3  1.0 3  0.0 3  1.0 3 
Triangulations 0

TShapes 21
Ve
0.001
0 0 0 
0 0

0101000
*
Ve
0.001
1 0 0 
0 0

0101000
*
Ed
 0.001 1 1 0
1 1 0 0.0 1.0
2 1 1 0 0.0 1.0
2 9 3 0 0.0 1.0
0
0101000
+21 0 -20 0 *
Ve
0.001
0 1 0 
0 0

0101000
*
Ed
 0.001 1 1 0
1 2 0 0.0 1.0
2 2 1 0 0.0 1.0
2 10 4 0 0.0 1.0
0
0101000
+20 0 -18 0 *
Ed
 0.001 1 1 0
1 3 0 0.0 1.0
2 3 1 0 0.0 1.0
2 4 2 0 0.0 1.0
0
0101000
+21 0 -18 0 *
Wi

0101100
+19 0 +17 0 -16 0 *
Fa
0 0.001 1 0

0101000
+15 0 *
Ve
0.001
0 0 1 
0 0

0101000
*
Ed
 0.001 1 1 0
1 4 0 0.0 1.0
2 5 2 0 0.0 1.0
2 11 4 0 0.0 1.0
0
0101000
+18 0 -13 0 *
Ed
 0.001 1 1 0
1 5 0 0.0 1.0
2 6 2 0 0.0 1.0
2 7 3 0 0.0 1.0
0
0101000
+21 0 -13 0 *
Wi

0101100
+16 0 +12 0 -11 0 *
Fa
0 0.001 2 0

0101000
+10 0 *
Ed
 0.001 1 1 0
1 6 0 0.0 1.0
2 8 3 0 0.0 1.0
2 12 4 0 0.0 1.0
0
0101000
+20 0 -13 0 *
Wi

0101100
+11 0 -8 0 -19 0 *
Fa
0 0.001 3 0

0101000
+7 0 *
Wi

0101100
+17 0 +12 0 -8 0 *
Fa
0 0.001 4 0

0101000
+5 0 *
Sh

0101000
+14 0 +9 0 +6 0 +4 0 *
So

0100000
+3 0 *
Co

1100000
+2 0 *

+1 0